<svg width="24.000000" height="24.000000" viewBox="0 0 24 24" fill="none" xmlns="http://www.w3.org/2000/svg" xmlns:xlink="http://www.w3.org/1999/xlink">
	<desc>
			Created with Pixso.
	</desc>
	<defs>
		<clipPath id="clip1_3144">
			<rect id="Dribbble Icon" width="24.000000" height="24.000000" transform="translate(-0.323730 0.000000)" fill="white" fill-opacity="0"/>
		</clipPath>
	</defs>
	<g clip-path="url(#clip1_3144)">
		<path id="Vector" d="M23.3 12C23.3 18.42 18.09 23.62 11.67 23.62C5.25 23.62 0.05 18.42 0.05 12C0.05 5.57 5.25 0.37 11.67 0.37C18.09 0.37 23.3 5.57 23.3 12Z" fill="#EA4C89" fill-opacity="1.000000" fill-rule="evenodd"/>
		<path id="Vector" d="M11.67 0C5.05 0 -0.33 5.37 -0.33 12C-0.33 18.62 5.05 24 11.67 24C18.28 24 23.67 18.62 23.67 12C23.67 5.37 18.28 0 11.67 0ZM19.6 5.53C21.03 7.27 21.89 9.5 21.91 11.9C21.58 11.84 18.19 11.15 14.78 11.58C14.7 11.41 14.64 11.23 14.56 11.04C14.35 10.55 14.12 10.04 13.88 9.56C17.66 8.03 19.38 5.81 19.6 5.53ZM11.67 1.77C14.27 1.77 16.66 2.74 18.47 4.34C18.28 4.6 16.73 6.67 13.09 8.04C11.41 4.95 9.55 2.43 9.26 2.04C10.03 1.86 10.84 1.77 11.67 1.77ZM7.31 2.73C7.58 3.09 9.41 5.63 11.11 8.65C6.32 9.93 2.09 9.9 1.64 9.9C2.3 6.72 4.45 4.08 7.31 2.73ZM1.42 12.01C1.42 11.9 1.42 11.8 1.42 11.7C1.86 11.71 6.83 11.77 11.94 10.24C12.24 10.81 12.52 11.4 12.78 11.98C12.65 12.02 12.5 12.06 12.37 12.1C7.09 13.8 4.28 18.46 4.04 18.85C2.42 17.04 1.42 14.64 1.42 12.01ZM11.67 22.25C9.3 22.25 7.12 21.44 5.38 20.09C5.57 19.71 7.65 15.7 13.43 13.69C13.45 13.67 13.47 13.67 13.49 13.66C14.94 17.4 15.52 20.53 15.68 21.43C14.44 21.96 13.09 22.25 11.67 22.25ZM17.38 20.49C17.28 19.87 16.73 16.88 15.39 13.19C18.61 12.68 21.42 13.52 21.77 13.63C21.33 16.49 19.69 18.95 17.38 20.49Z" fill="#C32361" fill-opacity="1.000000" fill-rule="evenodd"/>
	</g>
</svg>
