<svg width="16.000000" height="16.000000" viewBox="0 0 16 16" fill="none" xmlns="http://www.w3.org/2000/svg" xmlns:xlink="http://www.w3.org/1999/xlink">
	<desc>
			Created with Pixso.
	</desc>
	<defs>
		<clipPath id="clip1_3650">
			<rect id="svg" width="16.000000" height="16.000000" transform="translate(0.000000 -0.796875)" fill="white" fill-opacity="0"/>
		</clipPath>
	</defs>
	<g clip-path="url(#clip1_3650)">
		<path id="Vector" d="M10.6 11.25C9.49 12.06 8.13 12.53 6.66 12.53C2.98 12.53 0 9.55 0 5.86C0 2.18 2.98 -0.8 6.66 -0.8C10.34 -0.8 13.33 2.18 13.33 5.86C13.33 7.35 12.84 8.73 12.01 9.84C12.02 9.85 12.03 9.85 12.04 9.86L15.29 13.11C15.68 13.5 15.68 14.14 15.29 14.53C14.9 14.92 14.26 14.92 13.87 14.53L10.62 11.28C10.61 11.27 10.6 11.26 10.6 11.25ZM11.33 5.86C11.33 8.44 9.24 10.53 6.66 10.53C4.08 10.53 2 8.44 2 5.86C2 3.29 4.08 1.2 6.66 1.2C9.24 1.2 11.33 3.29 11.33 5.86Z" fill="#0D0C22" fill-opacity="1.000000" fill-rule="evenodd"/>
	</g>
</svg>
